<mxfile host="app.diagrams.net" agent="Mozilla/5.0 (Windows NT 10.0; Win64; x64) AppleWebKit/537.36 (KHTML, like Gecko) Chrome/134.0.0.0 Safari/537.36" version="26.1.3">
  <diagram name="Page-1" id="rUoAqe0sw1Ps4R46nMY7">
    <mxGraphModel dx="2020" dy="1308" grid="1" gridSize="10" guides="1" tooltips="1" connect="1" arrows="1" fold="1" page="1" pageScale="1" pageWidth="2339" pageHeight="3300" math="0" shadow="0">
      <root>
        <mxCell id="0" />
        <mxCell id="1" parent="0" />
        <mxCell id="gXU5FecRmnY3TLf8vR_u-1" value="Yritus" style="swimlane;fontStyle=0;childLayout=stackLayout;horizontal=1;startSize=30;horizontalStack=0;resizeParent=1;resizeParentMax=0;resizeLast=0;collapsible=1;marginBottom=0;whiteSpace=wrap;html=1;fillColor=#d5e8d4;strokeColor=#82b366;fontSize=19;" vertex="1" parent="1">
          <mxGeometry x="600" y="190" width="140" height="60" as="geometry" />
        </mxCell>
        <mxCell id="gXU5FecRmnY3TLf8vR_u-3" value="&amp;nbsp;" style="text;strokeColor=none;fillColor=none;align=left;verticalAlign=middle;spacingLeft=4;spacingRight=4;overflow=hidden;points=[[0,0.5],[1,0.5]];portConstraint=eastwest;rotatable=0;whiteSpace=wrap;html=1;fontSize=19;" vertex="1" parent="gXU5FecRmnY3TLf8vR_u-1">
          <mxGeometry y="30" width="140" height="30" as="geometry" />
        </mxCell>
        <mxCell id="gXU5FecRmnY3TLf8vR_u-5" value="&lt;font&gt;Kategooria&lt;/font&gt;" style="swimlane;fontStyle=0;childLayout=stackLayout;horizontal=1;startSize=30;horizontalStack=0;resizeParent=1;resizeParentMax=0;resizeLast=0;collapsible=1;marginBottom=0;whiteSpace=wrap;html=1;fillColor=#d5e8d4;strokeColor=#82b366;fontSize=19;" vertex="1" parent="1">
          <mxGeometry x="600" y="60" width="140" height="60" as="geometry" />
        </mxCell>
        <mxCell id="gXU5FecRmnY3TLf8vR_u-8" value="&amp;nbsp;" style="text;strokeColor=none;fillColor=none;align=left;verticalAlign=middle;spacingLeft=4;spacingRight=4;overflow=hidden;points=[[0,0.5],[1,0.5]];portConstraint=eastwest;rotatable=0;whiteSpace=wrap;html=1;fontSize=19;" vertex="1" parent="gXU5FecRmnY3TLf8vR_u-5">
          <mxGeometry y="30" width="140" height="30" as="geometry" />
        </mxCell>
        <mxCell id="gXU5FecRmnY3TLf8vR_u-9" value="Toimumine" style="swimlane;fontStyle=0;childLayout=stackLayout;horizontal=1;startSize=30;horizontalStack=0;resizeParent=1;resizeParentMax=0;resizeLast=0;collapsible=1;marginBottom=0;whiteSpace=wrap;html=1;fillColor=#d5e8d4;strokeColor=#82b366;fontSize=19;" vertex="1" parent="1">
          <mxGeometry x="600" y="340" width="140" height="60" as="geometry" />
        </mxCell>
        <mxCell id="gXU5FecRmnY3TLf8vR_u-10" value="&amp;nbsp;" style="text;strokeColor=none;fillColor=none;align=left;verticalAlign=middle;spacingLeft=4;spacingRight=4;overflow=hidden;points=[[0,0.5],[1,0.5]];portConstraint=eastwest;rotatable=0;whiteSpace=wrap;html=1;fontSize=19;" vertex="1" parent="gXU5FecRmnY3TLf8vR_u-9">
          <mxGeometry y="30" width="140" height="30" as="geometry" />
        </mxCell>
        <mxCell id="gXU5FecRmnY3TLf8vR_u-13" value="Toimumiskoht" style="swimlane;fontStyle=0;childLayout=stackLayout;horizontal=1;startSize=30;horizontalStack=0;resizeParent=1;resizeParentMax=0;resizeLast=0;collapsible=1;marginBottom=0;whiteSpace=wrap;html=1;fillColor=#d5e8d4;strokeColor=#82b366;fontSize=19;" vertex="1" parent="1">
          <mxGeometry x="880" y="340" width="140" height="60" as="geometry" />
        </mxCell>
        <mxCell id="gXU5FecRmnY3TLf8vR_u-14" value="&amp;nbsp;" style="text;strokeColor=none;fillColor=none;align=left;verticalAlign=middle;spacingLeft=4;spacingRight=4;overflow=hidden;points=[[0,0.5],[1,0.5]];portConstraint=eastwest;rotatable=0;whiteSpace=wrap;html=1;fontSize=19;" vertex="1" parent="gXU5FecRmnY3TLf8vR_u-13">
          <mxGeometry y="30" width="140" height="30" as="geometry" />
        </mxCell>
        <mxCell id="gXU5FecRmnY3TLf8vR_u-17" value="piirkond" style="swimlane;fontStyle=0;childLayout=stackLayout;horizontal=1;startSize=30;horizontalStack=0;resizeParent=1;resizeParentMax=0;resizeLast=0;collapsible=1;marginBottom=0;whiteSpace=wrap;html=1;fillColor=#d5e8d4;strokeColor=#82b366;fontSize=19;" vertex="1" parent="1">
          <mxGeometry x="880" y="480" width="140" height="60" as="geometry" />
        </mxCell>
        <mxCell id="gXU5FecRmnY3TLf8vR_u-18" value="&amp;nbsp;" style="text;strokeColor=none;fillColor=none;align=left;verticalAlign=middle;spacingLeft=4;spacingRight=4;overflow=hidden;points=[[0,0.5],[1,0.5]];portConstraint=eastwest;rotatable=0;whiteSpace=wrap;html=1;fontSize=19;" vertex="1" parent="gXU5FecRmnY3TLf8vR_u-17">
          <mxGeometry y="30" width="140" height="30" as="geometry" />
        </mxCell>
        <mxCell id="gXU5FecRmnY3TLf8vR_u-21" value="Istekoht" style="swimlane;fontStyle=0;childLayout=stackLayout;horizontal=1;startSize=30;horizontalStack=0;resizeParent=1;resizeParentMax=0;resizeLast=0;collapsible=1;marginBottom=0;whiteSpace=wrap;html=1;fillColor=#d5e8d4;strokeColor=#82b366;fontSize=19;" vertex="1" parent="1">
          <mxGeometry x="880" y="610" width="140" height="60" as="geometry" />
        </mxCell>
        <mxCell id="gXU5FecRmnY3TLf8vR_u-22" value="&amp;nbsp;" style="text;strokeColor=none;fillColor=none;align=left;verticalAlign=middle;spacingLeft=4;spacingRight=4;overflow=hidden;points=[[0,0.5],[1,0.5]];portConstraint=eastwest;rotatable=0;whiteSpace=wrap;html=1;fontSize=19;" vertex="1" parent="gXU5FecRmnY3TLf8vR_u-21">
          <mxGeometry y="30" width="140" height="30" as="geometry" />
        </mxCell>
        <mxCell id="gXU5FecRmnY3TLf8vR_u-25" value="Asula" style="swimlane;fontStyle=0;childLayout=stackLayout;horizontal=1;startSize=30;horizontalStack=0;resizeParent=1;resizeParentMax=0;resizeLast=0;collapsible=1;marginBottom=0;whiteSpace=wrap;html=1;fillColor=#d5e8d4;strokeColor=#82b366;fontSize=19;" vertex="1" parent="1">
          <mxGeometry x="880" y="190" width="140" height="60" as="geometry" />
        </mxCell>
        <mxCell id="gXU5FecRmnY3TLf8vR_u-26" value="&amp;nbsp;" style="text;strokeColor=none;fillColor=none;align=left;verticalAlign=middle;spacingLeft=4;spacingRight=4;overflow=hidden;points=[[0,0.5],[1,0.5]];portConstraint=eastwest;rotatable=0;whiteSpace=wrap;html=1;fontSize=19;" vertex="1" parent="gXU5FecRmnY3TLf8vR_u-25">
          <mxGeometry y="30" width="140" height="30" as="geometry" />
        </mxCell>
        <mxCell id="gXU5FecRmnY3TLf8vR_u-29" value="Riik" style="swimlane;fontStyle=0;childLayout=stackLayout;horizontal=1;startSize=30;horizontalStack=0;resizeParent=1;resizeParentMax=0;resizeLast=0;collapsible=1;marginBottom=0;whiteSpace=wrap;html=1;fillColor=#d5e8d4;strokeColor=#82b366;fontSize=19;" vertex="1" parent="1">
          <mxGeometry x="880" y="60" width="140" height="60" as="geometry" />
        </mxCell>
        <mxCell id="gXU5FecRmnY3TLf8vR_u-30" value="&amp;nbsp;" style="text;strokeColor=none;fillColor=none;align=left;verticalAlign=middle;spacingLeft=4;spacingRight=4;overflow=hidden;points=[[0,0.5],[1,0.5]];portConstraint=eastwest;rotatable=0;whiteSpace=wrap;html=1;fontSize=19;" vertex="1" parent="gXU5FecRmnY3TLf8vR_u-29">
          <mxGeometry y="30" width="140" height="30" as="geometry" />
        </mxCell>
        <mxCell id="gXU5FecRmnY3TLf8vR_u-33" value="Pilet" style="swimlane;fontStyle=0;childLayout=stackLayout;horizontal=1;startSize=30;horizontalStack=0;resizeParent=1;resizeParentMax=0;resizeLast=0;collapsible=1;marginBottom=0;whiteSpace=wrap;html=1;fillColor=#d5e8d4;strokeColor=#82b366;fontSize=19;" vertex="1" parent="1">
          <mxGeometry x="600" y="490" width="140" height="60" as="geometry" />
        </mxCell>
        <mxCell id="gXU5FecRmnY3TLf8vR_u-34" value="&amp;nbsp;" style="text;strokeColor=none;fillColor=none;align=left;verticalAlign=middle;spacingLeft=4;spacingRight=4;overflow=hidden;points=[[0,0.5],[1,0.5]];portConstraint=eastwest;rotatable=0;whiteSpace=wrap;html=1;fontSize=19;" vertex="1" parent="gXU5FecRmnY3TLf8vR_u-33">
          <mxGeometry y="30" width="140" height="30" as="geometry" />
        </mxCell>
        <mxCell id="gXU5FecRmnY3TLf8vR_u-37" value="Piletityyp" style="swimlane;fontStyle=0;childLayout=stackLayout;horizontal=1;startSize=30;horizontalStack=0;resizeParent=1;resizeParentMax=0;resizeLast=0;collapsible=1;marginBottom=0;whiteSpace=wrap;html=1;fillColor=#d5e8d4;strokeColor=#82b366;fontSize=19;" vertex="1" parent="1">
          <mxGeometry x="410" y="400" width="140" height="60" as="geometry" />
        </mxCell>
        <mxCell id="gXU5FecRmnY3TLf8vR_u-38" value="&amp;nbsp;" style="text;strokeColor=none;fillColor=none;align=left;verticalAlign=middle;spacingLeft=4;spacingRight=4;overflow=hidden;points=[[0,0.5],[1,0.5]];portConstraint=eastwest;rotatable=0;whiteSpace=wrap;html=1;fontSize=19;" vertex="1" parent="gXU5FecRmnY3TLf8vR_u-37">
          <mxGeometry y="30" width="140" height="30" as="geometry" />
        </mxCell>
        <mxCell id="gXU5FecRmnY3TLf8vR_u-41" value="Korraldaja" style="swimlane;fontStyle=0;childLayout=stackLayout;horizontal=1;startSize=30;horizontalStack=0;resizeParent=1;resizeParentMax=0;resizeLast=0;collapsible=1;marginBottom=0;whiteSpace=wrap;html=1;fillColor=#d5e8d4;strokeColor=#82b366;fontSize=19;" vertex="1" parent="1">
          <mxGeometry x="340" y="190" width="140" height="60" as="geometry" />
        </mxCell>
        <mxCell id="gXU5FecRmnY3TLf8vR_u-42" value="&amp;nbsp;" style="text;strokeColor=none;fillColor=none;align=left;verticalAlign=middle;spacingLeft=4;spacingRight=4;overflow=hidden;points=[[0,0.5],[1,0.5]];portConstraint=eastwest;rotatable=0;whiteSpace=wrap;html=1;fontSize=19;" vertex="1" parent="gXU5FecRmnY3TLf8vR_u-41">
          <mxGeometry y="30" width="140" height="30" as="geometry" />
        </mxCell>
        <mxCell id="gXU5FecRmnY3TLf8vR_u-45" value="Ostukorv" style="swimlane;fontStyle=0;childLayout=stackLayout;horizontal=1;startSize=30;horizontalStack=0;resizeParent=1;resizeParentMax=0;resizeLast=0;collapsible=1;marginBottom=0;whiteSpace=wrap;html=1;fillColor=#d5e8d4;strokeColor=#82b366;fontSize=19;" vertex="1" parent="1">
          <mxGeometry x="410" y="600" width="140" height="60" as="geometry" />
        </mxCell>
        <mxCell id="gXU5FecRmnY3TLf8vR_u-46" value="&amp;nbsp;" style="text;strokeColor=none;fillColor=none;align=left;verticalAlign=middle;spacingLeft=4;spacingRight=4;overflow=hidden;points=[[0,0.5],[1,0.5]];portConstraint=eastwest;rotatable=0;whiteSpace=wrap;html=1;fontSize=19;" vertex="1" parent="gXU5FecRmnY3TLf8vR_u-45">
          <mxGeometry y="30" width="140" height="30" as="geometry" />
        </mxCell>
        <mxCell id="gXU5FecRmnY3TLf8vR_u-49" value="Klient" style="swimlane;fontStyle=0;childLayout=stackLayout;horizontal=1;startSize=30;horizontalStack=0;resizeParent=1;resizeParentMax=0;resizeLast=0;collapsible=1;marginBottom=0;whiteSpace=wrap;html=1;fillColor=#d5e8d4;strokeColor=#82b366;fontSize=19;" vertex="1" parent="1">
          <mxGeometry x="190" y="490" width="140" height="60" as="geometry" />
        </mxCell>
        <mxCell id="gXU5FecRmnY3TLf8vR_u-50" value="&amp;nbsp;" style="text;strokeColor=none;fillColor=none;align=left;verticalAlign=middle;spacingLeft=4;spacingRight=4;overflow=hidden;points=[[0,0.5],[1,0.5]];portConstraint=eastwest;rotatable=0;whiteSpace=wrap;html=1;fontSize=19;" vertex="1" parent="gXU5FecRmnY3TLf8vR_u-49">
          <mxGeometry y="30" width="140" height="30" as="geometry" />
        </mxCell>
        <mxCell id="gXU5FecRmnY3TLf8vR_u-53" value="Kliendikonto" style="swimlane;fontStyle=0;childLayout=stackLayout;horizontal=1;startSize=30;horizontalStack=0;resizeParent=1;resizeParentMax=0;resizeLast=0;collapsible=1;marginBottom=0;whiteSpace=wrap;html=1;fillColor=#d5e8d4;strokeColor=#82b366;fontSize=19;" vertex="1" parent="1">
          <mxGeometry x="190.32" y="340" width="140" height="60" as="geometry" />
        </mxCell>
        <mxCell id="gXU5FecRmnY3TLf8vR_u-54" value="&amp;nbsp;" style="text;strokeColor=none;fillColor=none;align=left;verticalAlign=middle;spacingLeft=4;spacingRight=4;overflow=hidden;points=[[0,0.5],[1,0.5]];portConstraint=eastwest;rotatable=0;whiteSpace=wrap;html=1;fontSize=19;" vertex="1" parent="gXU5FecRmnY3TLf8vR_u-53">
          <mxGeometry y="30" width="140" height="30" as="geometry" />
        </mxCell>
        <mxCell id="gXU5FecRmnY3TLf8vR_u-57" value="List" style="swimlane;fontStyle=0;childLayout=stackLayout;horizontal=1;startSize=30;horizontalStack=0;resizeParent=1;resizeParentMax=0;resizeLast=0;collapsible=1;marginBottom=0;whiteSpace=wrap;html=1;" vertex="1" parent="1">
          <mxGeometry x="1270" y="890" width="140" height="60" as="geometry" />
        </mxCell>
        <mxCell id="gXU5FecRmnY3TLf8vR_u-58" value="&amp;nbsp;" style="text;strokeColor=none;fillColor=none;align=left;verticalAlign=middle;spacingLeft=4;spacingRight=4;overflow=hidden;points=[[0,0.5],[1,0.5]];portConstraint=eastwest;rotatable=0;whiteSpace=wrap;html=1;" vertex="1" parent="gXU5FecRmnY3TLf8vR_u-57">
          <mxGeometry y="30" width="140" height="30" as="geometry" />
        </mxCell>
        <mxCell id="gXU5FecRmnY3TLf8vR_u-61" value="&lt;font&gt;Ost&lt;/font&gt;" style="swimlane;fontStyle=0;childLayout=stackLayout;horizontal=1;startSize=30;horizontalStack=0;resizeParent=1;resizeParentMax=0;resizeLast=0;collapsible=1;marginBottom=0;whiteSpace=wrap;html=1;fillColor=#d5e8d4;strokeColor=#82b366;fontSize=19;" vertex="1" parent="1">
          <mxGeometry x="410" y="710" width="140" height="60" as="geometry" />
        </mxCell>
        <mxCell id="gXU5FecRmnY3TLf8vR_u-65" value="" style="endArrow=classic;html=1;rounded=0;" edge="1" parent="1">
          <mxGeometry width="50" height="50" relative="1" as="geometry">
            <mxPoint x="1400" y="167.5" as="sourcePoint" />
            <mxPoint x="1450" y="117.5" as="targetPoint" />
          </mxGeometry>
        </mxCell>
        <mxCell id="gXU5FecRmnY3TLf8vR_u-67" value="" style="shape=waypoint;sketch=0;fillStyle=solid;size=6;pointerEvents=1;points=[];fillColor=none;resizable=0;rotatable=0;perimeter=centerPerimeter;snapToPoint=1;strokeWidth=5;fontSize=19;" vertex="1" parent="1">
          <mxGeometry x="660" y="170" width="20" height="20" as="geometry" />
        </mxCell>
        <mxCell id="gXU5FecRmnY3TLf8vR_u-68" value="" style="line;strokeWidth=2;direction=south;html=1;perimeter=backbonePerimeter;points=[];outlineConnect=0;fontSize=19;" vertex="1" parent="1">
          <mxGeometry x="665" y="120" width="10" height="60" as="geometry" />
        </mxCell>
        <mxCell id="gXU5FecRmnY3TLf8vR_u-69" value="" style="shape=waypoint;sketch=0;fillStyle=solid;size=6;pointerEvents=1;points=[];fillColor=none;resizable=0;rotatable=0;perimeter=centerPerimeter;snapToPoint=1;strokeWidth=5;fontSize=19;" vertex="1" parent="1">
          <mxGeometry x="580" y="210" width="20" height="20" as="geometry" />
        </mxCell>
        <mxCell id="gXU5FecRmnY3TLf8vR_u-70" value="" style="line;strokeWidth=2;direction=south;html=1;perimeter=backbonePerimeter;points=[];outlineConnect=0;rotation=90;fontSize=19;" vertex="1" parent="1">
          <mxGeometry x="527.5" y="167.5" width="10" height="105" as="geometry" />
        </mxCell>
        <mxCell id="gXU5FecRmnY3TLf8vR_u-71" value="" style="line;strokeWidth=2;direction=south;html=1;perimeter=backbonePerimeter;points=[];outlineConnect=0;fontSize=19;" vertex="1" parent="1">
          <mxGeometry x="665" y="250" width="10" height="80" as="geometry" />
        </mxCell>
        <mxCell id="gXU5FecRmnY3TLf8vR_u-72" value="" style="shape=waypoint;sketch=0;fillStyle=solid;size=6;pointerEvents=1;points=[];fillColor=none;resizable=0;rotatable=0;perimeter=centerPerimeter;snapToPoint=1;strokeWidth=5;fontSize=19;" vertex="1" parent="1">
          <mxGeometry x="660" y="320" width="20" height="20" as="geometry" />
        </mxCell>
        <mxCell id="gXU5FecRmnY3TLf8vR_u-73" value="" style="line;strokeWidth=2;direction=south;html=1;perimeter=backbonePerimeter;points=[];outlineConnect=0;rotation=90;fontSize=19;" vertex="1" parent="1">
          <mxGeometry x="810.63" y="306.88" width="10" height="126.25" as="geometry" />
        </mxCell>
        <mxCell id="gXU5FecRmnY3TLf8vR_u-74" value="" style="shape=waypoint;sketch=0;fillStyle=solid;size=6;pointerEvents=1;points=[];fillColor=none;resizable=0;rotatable=0;perimeter=centerPerimeter;snapToPoint=1;strokeWidth=5;fontSize=19;" vertex="1" parent="1">
          <mxGeometry x="740" y="360" width="20" height="20" as="geometry" />
        </mxCell>
        <mxCell id="gXU5FecRmnY3TLf8vR_u-75" value="" style="line;strokeWidth=2;direction=south;html=1;perimeter=backbonePerimeter;points=[];outlineConnect=0;fontSize=19;" vertex="1" parent="1">
          <mxGeometry x="945" y="250" width="10" height="80" as="geometry" />
        </mxCell>
        <mxCell id="gXU5FecRmnY3TLf8vR_u-76" value="" style="line;strokeWidth=2;direction=south;html=1;perimeter=backbonePerimeter;points=[];outlineConnect=0;fontSize=19;" vertex="1" parent="1">
          <mxGeometry x="945" y="120" width="10" height="60" as="geometry" />
        </mxCell>
        <mxCell id="gXU5FecRmnY3TLf8vR_u-77" value="" style="shape=waypoint;sketch=0;fillStyle=solid;size=6;pointerEvents=1;points=[];fillColor=none;resizable=0;rotatable=0;perimeter=centerPerimeter;snapToPoint=1;strokeWidth=5;fontSize=19;" vertex="1" parent="1">
          <mxGeometry x="940" y="320" width="20" height="20" as="geometry" />
        </mxCell>
        <mxCell id="gXU5FecRmnY3TLf8vR_u-78" value="" style="shape=waypoint;sketch=0;fillStyle=solid;size=6;pointerEvents=1;points=[];fillColor=none;resizable=0;rotatable=0;perimeter=centerPerimeter;snapToPoint=1;strokeWidth=5;fontSize=19;" vertex="1" parent="1">
          <mxGeometry x="940" y="167.5" width="20" height="20" as="geometry" />
        </mxCell>
        <mxCell id="gXU5FecRmnY3TLf8vR_u-79" value="" style="line;strokeWidth=2;direction=south;html=1;perimeter=backbonePerimeter;points=[];outlineConnect=0;fontSize=19;" vertex="1" parent="1">
          <mxGeometry x="665" y="400" width="10" height="80" as="geometry" />
        </mxCell>
        <mxCell id="gXU5FecRmnY3TLf8vR_u-80" value="" style="shape=waypoint;sketch=0;fillStyle=solid;size=6;pointerEvents=1;points=[];fillColor=none;resizable=0;rotatable=0;perimeter=centerPerimeter;snapToPoint=1;strokeWidth=5;fontSize=19;" vertex="1" parent="1">
          <mxGeometry x="660" y="470" width="20" height="20" as="geometry" />
        </mxCell>
        <mxCell id="gXU5FecRmnY3TLf8vR_u-81" value="" style="line;strokeWidth=2;direction=south;html=1;perimeter=backbonePerimeter;points=[];outlineConnect=0;rotation=90;fontSize=19;" vertex="1" parent="1">
          <mxGeometry x="530" y="467.5" width="10" height="105" as="geometry" />
        </mxCell>
        <mxCell id="gXU5FecRmnY3TLf8vR_u-82" value="" style="shape=waypoint;sketch=0;fillStyle=solid;size=6;pointerEvents=1;points=[];fillColor=none;resizable=0;rotatable=0;perimeter=centerPerimeter;snapToPoint=1;strokeWidth=5;fontSize=19;" vertex="1" parent="1">
          <mxGeometry x="580" y="510" width="20" height="20" as="geometry" />
        </mxCell>
        <mxCell id="gXU5FecRmnY3TLf8vR_u-85" value="" style="line;strokeWidth=2;direction=south;html=1;perimeter=backbonePerimeter;points=[];outlineConnect=0;fontSize=19;" vertex="1" parent="1">
          <mxGeometry x="475" y="460" width="10" height="60" as="geometry" />
        </mxCell>
        <mxCell id="gXU5FecRmnY3TLf8vR_u-86" value="" style="line;strokeWidth=2;direction=south;html=1;perimeter=backbonePerimeter;points=[];outlineConnect=0;rotation=90;fontSize=19;" vertex="1" parent="1">
          <mxGeometry x="527.5" y="490" width="10" height="105" as="geometry" />
        </mxCell>
        <mxCell id="gXU5FecRmnY3TLf8vR_u-87" value="" style="shape=waypoint;sketch=0;fillStyle=solid;size=6;pointerEvents=1;points=[];fillColor=none;resizable=0;rotatable=0;perimeter=centerPerimeter;snapToPoint=1;strokeWidth=5;fontSize=19;" vertex="1" parent="1">
          <mxGeometry x="580" y="532.5" width="20" height="20" as="geometry" />
        </mxCell>
        <mxCell id="gXU5FecRmnY3TLf8vR_u-88" value="" style="line;strokeWidth=2;direction=south;html=1;perimeter=backbonePerimeter;points=[];outlineConnect=0;fontSize=19;" vertex="1" parent="1">
          <mxGeometry x="475" y="540" width="10" height="60" as="geometry" />
        </mxCell>
        <mxCell id="gXU5FecRmnY3TLf8vR_u-89" value="" style="line;strokeWidth=2;direction=south;html=1;perimeter=backbonePerimeter;points=[];outlineConnect=0;fontSize=19;" vertex="1" parent="1">
          <mxGeometry x="665" y="560" width="10" height="180" as="geometry" />
        </mxCell>
        <mxCell id="gXU5FecRmnY3TLf8vR_u-90" value="" style="line;strokeWidth=2;direction=south;html=1;perimeter=backbonePerimeter;points=[];outlineConnect=0;rotation=90;fontSize=19;" vertex="1" parent="1">
          <mxGeometry x="608.13" y="679.38" width="10" height="121.25" as="geometry" />
        </mxCell>
        <mxCell id="gXU5FecRmnY3TLf8vR_u-91" value="" style="shape=waypoint;sketch=0;fillStyle=solid;size=6;pointerEvents=1;points=[];fillColor=none;resizable=0;rotatable=0;perimeter=centerPerimeter;snapToPoint=1;strokeWidth=5;fontSize=19;" vertex="1" parent="1">
          <mxGeometry x="660" y="552.5" width="20" height="20" as="geometry" />
        </mxCell>
        <mxCell id="gXU5FecRmnY3TLf8vR_u-92" value="" style="line;strokeWidth=2;direction=south;html=1;perimeter=backbonePerimeter;points=[];outlineConnect=0;rotation=90;fontSize=19;" vertex="1" parent="1">
          <mxGeometry x="320.32" y="659.69" width="10" height="160.63" as="geometry" />
        </mxCell>
        <mxCell id="gXU5FecRmnY3TLf8vR_u-93" value="" style="line;strokeWidth=2;direction=south;html=1;perimeter=backbonePerimeter;points=[];outlineConnect=0;rotation=90;fontSize=19;" vertex="1" parent="1">
          <mxGeometry x="340.005" y="569.375" width="10" height="121.25" as="geometry" />
        </mxCell>
        <mxCell id="gXU5FecRmnY3TLf8vR_u-94" value="" style="line;strokeWidth=2;direction=south;html=1;perimeter=backbonePerimeter;points=[];outlineConnect=0;fontSize=19;" vertex="1" parent="1">
          <mxGeometry x="240" y="552.5" width="10" height="187.5" as="geometry" />
        </mxCell>
        <mxCell id="gXU5FecRmnY3TLf8vR_u-95" value="" style="line;strokeWidth=2;direction=south;html=1;perimeter=backbonePerimeter;points=[];outlineConnect=0;fontSize=19;" vertex="1" parent="1">
          <mxGeometry x="280" y="552.5" width="10" height="77.5" as="geometry" />
        </mxCell>
        <mxCell id="gXU5FecRmnY3TLf8vR_u-96" value="" style="shape=waypoint;sketch=0;fillStyle=solid;size=6;pointerEvents=1;points=[];fillColor=none;resizable=0;rotatable=0;perimeter=centerPerimeter;snapToPoint=1;strokeWidth=5;fontSize=19;" vertex="1" parent="1">
          <mxGeometry x="1530" y="650" width="20" height="20" as="geometry" />
        </mxCell>
        <mxCell id="gXU5FecRmnY3TLf8vR_u-97" value="" style="shape=waypoint;sketch=0;fillStyle=solid;size=6;pointerEvents=1;points=[];fillColor=none;resizable=0;rotatable=0;perimeter=centerPerimeter;snapToPoint=1;strokeWidth=5;fontSize=19;" vertex="1" parent="1">
          <mxGeometry x="390" y="730.01" width="20" height="20" as="geometry" />
        </mxCell>
        <mxCell id="gXU5FecRmnY3TLf8vR_u-98" value="" style="line;strokeWidth=2;direction=south;html=1;perimeter=backbonePerimeter;points=[];outlineConnect=0;fontSize=19;" vertex="1" parent="1">
          <mxGeometry x="255" y="400" width="10" height="90" as="geometry" />
        </mxCell>
      </root>
    </mxGraphModel>
  </diagram>
</mxfile>
